<mxfile host="Electron" modified="2023-09-23T18:39:50.986Z" agent="Mozilla/5.0 (Macintosh; Intel Mac OS X 10_15_7) AppleWebKit/537.36 (KHTML, like Gecko) draw.io/21.7.5 Chrome/114.0.5735.289 Electron/25.8.1 Safari/537.36" etag="NYvUfXg76pxGp5QSL3kZ" version="21.7.5" type="device">
  <diagram id="R2lEEEUBdFMjLlhIrx00" name="Page-1">
    <mxGraphModel dx="869" dy="674" grid="0" gridSize="10" guides="1" tooltips="1" connect="1" arrows="1" fold="1" page="1" pageScale="1" pageWidth="827" pageHeight="1169" background="#ffffff" math="0" shadow="0" extFonts="Permanent Marker^https://fonts.googleapis.com/css?family=Permanent+Marker">
      <root>
        <mxCell id="0" />
        <mxCell id="1" parent="0" />
        <mxCell id="JdINOegVUnqDGuHXTXD6-1" value="Universities" style="shape=table;startSize=30;container=1;collapsible=1;childLayout=tableLayout;fixedRows=1;rowLines=0;fontStyle=1;align=center;resizeLast=1;html=1;labelBackgroundColor=none;fillColor=#21C0A5;strokeColor=#006658;fontColor=#5C5C5C;" parent="1" vertex="1">
          <mxGeometry x="19" y="125" width="110" height="240" as="geometry" />
        </mxCell>
        <mxCell id="JdINOegVUnqDGuHXTXD6-2" value="" style="shape=tableRow;horizontal=0;startSize=0;swimlaneHead=0;swimlaneBody=0;fillColor=none;collapsible=0;dropTarget=0;points=[[0,0.5],[1,0.5]];portConstraint=eastwest;top=0;left=0;right=0;bottom=1;labelBackgroundColor=none;strokeColor=#006658;fontColor=#5C5C5C;" parent="JdINOegVUnqDGuHXTXD6-1" vertex="1">
          <mxGeometry y="30" width="110" height="30" as="geometry" />
        </mxCell>
        <mxCell id="JdINOegVUnqDGuHXTXD6-3" value="PK" style="shape=partialRectangle;connectable=0;fillColor=none;top=0;left=0;bottom=0;right=0;fontStyle=1;overflow=hidden;whiteSpace=wrap;html=1;labelBackgroundColor=none;strokeColor=#006658;fontColor=#5C5C5C;" parent="JdINOegVUnqDGuHXTXD6-2" vertex="1">
          <mxGeometry width="30" height="30" as="geometry">
            <mxRectangle width="30" height="30" as="alternateBounds" />
          </mxGeometry>
        </mxCell>
        <mxCell id="JdINOegVUnqDGuHXTXD6-4" value="ID" style="shape=partialRectangle;connectable=0;fillColor=none;top=0;left=0;bottom=0;right=0;align=left;spacingLeft=6;fontStyle=5;overflow=hidden;whiteSpace=wrap;html=1;labelBackgroundColor=none;strokeColor=#006658;fontColor=#5C5C5C;" parent="JdINOegVUnqDGuHXTXD6-2" vertex="1">
          <mxGeometry x="30" width="80" height="30" as="geometry">
            <mxRectangle width="80" height="30" as="alternateBounds" />
          </mxGeometry>
        </mxCell>
        <mxCell id="JdINOegVUnqDGuHXTXD6-5" value="" style="shape=tableRow;horizontal=0;startSize=0;swimlaneHead=0;swimlaneBody=0;fillColor=none;collapsible=0;dropTarget=0;points=[[0,0.5],[1,0.5]];portConstraint=eastwest;top=0;left=0;right=0;bottom=0;labelBackgroundColor=none;strokeColor=#006658;fontColor=#5C5C5C;" parent="JdINOegVUnqDGuHXTXD6-1" vertex="1">
          <mxGeometry y="60" width="110" height="30" as="geometry" />
        </mxCell>
        <mxCell id="JdINOegVUnqDGuHXTXD6-6" value="" style="shape=partialRectangle;connectable=0;fillColor=none;top=0;left=0;bottom=0;right=0;editable=1;overflow=hidden;whiteSpace=wrap;html=1;labelBackgroundColor=none;strokeColor=#006658;fontColor=#5C5C5C;" parent="JdINOegVUnqDGuHXTXD6-5" vertex="1">
          <mxGeometry width="30" height="30" as="geometry">
            <mxRectangle width="30" height="30" as="alternateBounds" />
          </mxGeometry>
        </mxCell>
        <mxCell id="JdINOegVUnqDGuHXTXD6-7" value="name" style="shape=partialRectangle;connectable=0;fillColor=none;top=0;left=0;bottom=0;right=0;align=left;spacingLeft=6;overflow=hidden;whiteSpace=wrap;html=1;labelBackgroundColor=none;strokeColor=#006658;fontColor=#5C5C5C;" parent="JdINOegVUnqDGuHXTXD6-5" vertex="1">
          <mxGeometry x="30" width="80" height="30" as="geometry">
            <mxRectangle width="80" height="30" as="alternateBounds" />
          </mxGeometry>
        </mxCell>
        <mxCell id="JdINOegVUnqDGuHXTXD6-8" value="" style="shape=tableRow;horizontal=0;startSize=0;swimlaneHead=0;swimlaneBody=0;fillColor=none;collapsible=0;dropTarget=0;points=[[0,0.5],[1,0.5]];portConstraint=eastwest;top=0;left=0;right=0;bottom=0;labelBackgroundColor=none;strokeColor=#006658;fontColor=#5C5C5C;" parent="JdINOegVUnqDGuHXTXD6-1" vertex="1">
          <mxGeometry y="90" width="110" height="30" as="geometry" />
        </mxCell>
        <mxCell id="JdINOegVUnqDGuHXTXD6-9" value="" style="shape=partialRectangle;connectable=0;fillColor=none;top=0;left=0;bottom=0;right=0;editable=1;overflow=hidden;whiteSpace=wrap;html=1;labelBackgroundColor=none;strokeColor=#006658;fontColor=#5C5C5C;" parent="JdINOegVUnqDGuHXTXD6-8" vertex="1">
          <mxGeometry width="30" height="30" as="geometry">
            <mxRectangle width="30" height="30" as="alternateBounds" />
          </mxGeometry>
        </mxCell>
        <mxCell id="JdINOegVUnqDGuHXTXD6-10" value="website" style="shape=partialRectangle;connectable=0;fillColor=none;top=0;left=0;bottom=0;right=0;align=left;spacingLeft=6;overflow=hidden;whiteSpace=wrap;html=1;labelBackgroundColor=none;strokeColor=#006658;fontColor=#5C5C5C;" parent="JdINOegVUnqDGuHXTXD6-8" vertex="1">
          <mxGeometry x="30" width="80" height="30" as="geometry">
            <mxRectangle width="80" height="30" as="alternateBounds" />
          </mxGeometry>
        </mxCell>
        <mxCell id="JdINOegVUnqDGuHXTXD6-11" value="" style="shape=tableRow;horizontal=0;startSize=0;swimlaneHead=0;swimlaneBody=0;fillColor=none;collapsible=0;dropTarget=0;points=[[0,0.5],[1,0.5]];portConstraint=eastwest;top=0;left=0;right=0;bottom=0;labelBackgroundColor=none;strokeColor=#006658;fontColor=#5C5C5C;" parent="JdINOegVUnqDGuHXTXD6-1" vertex="1">
          <mxGeometry y="120" width="110" height="30" as="geometry" />
        </mxCell>
        <mxCell id="JdINOegVUnqDGuHXTXD6-12" value="" style="shape=partialRectangle;connectable=0;fillColor=none;top=0;left=0;bottom=0;right=0;editable=1;overflow=hidden;whiteSpace=wrap;html=1;labelBackgroundColor=none;strokeColor=#006658;fontColor=#5C5C5C;" parent="JdINOegVUnqDGuHXTXD6-11" vertex="1">
          <mxGeometry width="30" height="30" as="geometry">
            <mxRectangle width="30" height="30" as="alternateBounds" />
          </mxGeometry>
        </mxCell>
        <mxCell id="JdINOegVUnqDGuHXTXD6-13" value="email" style="shape=partialRectangle;connectable=0;fillColor=none;top=0;left=0;bottom=0;right=0;align=left;spacingLeft=6;overflow=hidden;whiteSpace=wrap;html=1;labelBackgroundColor=none;strokeColor=#006658;fontColor=#5C5C5C;" parent="JdINOegVUnqDGuHXTXD6-11" vertex="1">
          <mxGeometry x="30" width="80" height="30" as="geometry">
            <mxRectangle width="80" height="30" as="alternateBounds" />
          </mxGeometry>
        </mxCell>
        <mxCell id="JdINOegVUnqDGuHXTXD6-143" value="" style="shape=tableRow;horizontal=0;startSize=0;swimlaneHead=0;swimlaneBody=0;fillColor=none;collapsible=0;dropTarget=0;points=[[0,0.5],[1,0.5]];portConstraint=eastwest;top=0;left=0;right=0;bottom=0;labelBackgroundColor=none;strokeColor=#006658;fontColor=#5C5C5C;" parent="JdINOegVUnqDGuHXTXD6-1" vertex="1">
          <mxGeometry y="150" width="110" height="30" as="geometry" />
        </mxCell>
        <mxCell id="JdINOegVUnqDGuHXTXD6-144" value="" style="shape=partialRectangle;connectable=0;fillColor=none;top=0;left=0;bottom=0;right=0;editable=1;overflow=hidden;labelBackgroundColor=none;strokeColor=#006658;fontColor=#5C5C5C;" parent="JdINOegVUnqDGuHXTXD6-143" vertex="1">
          <mxGeometry width="30" height="30" as="geometry">
            <mxRectangle width="30" height="30" as="alternateBounds" />
          </mxGeometry>
        </mxCell>
        <mxCell id="JdINOegVUnqDGuHXTXD6-145" value="phone" style="shape=partialRectangle;connectable=0;fillColor=none;top=0;left=0;bottom=0;right=0;align=left;spacingLeft=6;overflow=hidden;labelBackgroundColor=none;strokeColor=#006658;fontColor=#5C5C5C;" parent="JdINOegVUnqDGuHXTXD6-143" vertex="1">
          <mxGeometry x="30" width="80" height="30" as="geometry">
            <mxRectangle width="80" height="30" as="alternateBounds" />
          </mxGeometry>
        </mxCell>
        <mxCell id="JdINOegVUnqDGuHXTXD6-146" value="" style="shape=tableRow;horizontal=0;startSize=0;swimlaneHead=0;swimlaneBody=0;fillColor=none;collapsible=0;dropTarget=0;points=[[0,0.5],[1,0.5]];portConstraint=eastwest;top=0;left=0;right=0;bottom=0;labelBackgroundColor=none;strokeColor=#006658;fontColor=#5C5C5C;" parent="JdINOegVUnqDGuHXTXD6-1" vertex="1">
          <mxGeometry y="180" width="110" height="30" as="geometry" />
        </mxCell>
        <mxCell id="JdINOegVUnqDGuHXTXD6-147" value="FK" style="shape=partialRectangle;connectable=0;fillColor=none;top=0;left=0;bottom=0;right=0;editable=1;overflow=hidden;labelBackgroundColor=none;strokeColor=#006658;fontColor=#5C5C5C;" parent="JdINOegVUnqDGuHXTXD6-146" vertex="1">
          <mxGeometry width="30" height="30" as="geometry">
            <mxRectangle width="30" height="30" as="alternateBounds" />
          </mxGeometry>
        </mxCell>
        <mxCell id="JdINOegVUnqDGuHXTXD6-148" value="countryID" style="shape=partialRectangle;connectable=0;fillColor=none;top=0;left=0;bottom=0;right=0;align=left;spacingLeft=6;overflow=hidden;labelBackgroundColor=none;strokeColor=#006658;fontColor=#5C5C5C;" parent="JdINOegVUnqDGuHXTXD6-146" vertex="1">
          <mxGeometry x="30" width="80" height="30" as="geometry">
            <mxRectangle width="80" height="30" as="alternateBounds" />
          </mxGeometry>
        </mxCell>
        <mxCell id="JdINOegVUnqDGuHXTXD6-166" value="" style="shape=tableRow;horizontal=0;startSize=0;swimlaneHead=0;swimlaneBody=0;fillColor=none;collapsible=0;dropTarget=0;points=[[0,0.5],[1,0.5]];portConstraint=eastwest;top=0;left=0;right=0;bottom=0;labelBackgroundColor=none;strokeColor=#006658;fontColor=#5C5C5C;" parent="JdINOegVUnqDGuHXTXD6-1" vertex="1">
          <mxGeometry y="210" width="110" height="30" as="geometry" />
        </mxCell>
        <mxCell id="JdINOegVUnqDGuHXTXD6-167" value="FK" style="shape=partialRectangle;connectable=0;fillColor=none;top=0;left=0;bottom=0;right=0;editable=1;overflow=hidden;labelBackgroundColor=none;strokeColor=#006658;fontColor=#5C5C5C;" parent="JdINOegVUnqDGuHXTXD6-166" vertex="1">
          <mxGeometry width="30" height="30" as="geometry">
            <mxRectangle width="30" height="30" as="alternateBounds" />
          </mxGeometry>
        </mxCell>
        <mxCell id="JdINOegVUnqDGuHXTXD6-168" value="cityID" style="shape=partialRectangle;connectable=0;fillColor=none;top=0;left=0;bottom=0;right=0;align=left;spacingLeft=6;overflow=hidden;labelBackgroundColor=none;strokeColor=#006658;fontColor=#5C5C5C;" parent="JdINOegVUnqDGuHXTXD6-166" vertex="1">
          <mxGeometry x="30" width="80" height="30" as="geometry">
            <mxRectangle width="80" height="30" as="alternateBounds" />
          </mxGeometry>
        </mxCell>
        <mxCell id="JdINOegVUnqDGuHXTXD6-56" value="Departments" style="shape=table;startSize=30;container=1;collapsible=1;childLayout=tableLayout;fixedRows=1;rowLines=0;fontStyle=1;align=center;resizeLast=1;html=1;labelBackgroundColor=none;fillColor=#21C0A5;strokeColor=#006658;fontColor=#5C5C5C;" parent="1" vertex="1">
          <mxGeometry x="189" y="155" width="180" height="150" as="geometry" />
        </mxCell>
        <mxCell id="JdINOegVUnqDGuHXTXD6-57" value="" style="shape=tableRow;horizontal=0;startSize=0;swimlaneHead=0;swimlaneBody=0;fillColor=none;collapsible=0;dropTarget=0;points=[[0,0.5],[1,0.5]];portConstraint=eastwest;top=0;left=0;right=0;bottom=1;labelBackgroundColor=none;strokeColor=#006658;fontColor=#5C5C5C;" parent="JdINOegVUnqDGuHXTXD6-56" vertex="1">
          <mxGeometry y="30" width="180" height="30" as="geometry" />
        </mxCell>
        <mxCell id="JdINOegVUnqDGuHXTXD6-58" value="PK" style="shape=partialRectangle;connectable=0;fillColor=none;top=0;left=0;bottom=0;right=0;fontStyle=1;overflow=hidden;whiteSpace=wrap;html=1;labelBackgroundColor=none;strokeColor=#006658;fontColor=#5C5C5C;" parent="JdINOegVUnqDGuHXTXD6-57" vertex="1">
          <mxGeometry width="30" height="30" as="geometry">
            <mxRectangle width="30" height="30" as="alternateBounds" />
          </mxGeometry>
        </mxCell>
        <mxCell id="JdINOegVUnqDGuHXTXD6-59" value="ID" style="shape=partialRectangle;connectable=0;fillColor=none;top=0;left=0;bottom=0;right=0;align=left;spacingLeft=6;fontStyle=5;overflow=hidden;whiteSpace=wrap;html=1;labelBackgroundColor=none;strokeColor=#006658;fontColor=#5C5C5C;" parent="JdINOegVUnqDGuHXTXD6-57" vertex="1">
          <mxGeometry x="30" width="150" height="30" as="geometry">
            <mxRectangle width="150" height="30" as="alternateBounds" />
          </mxGeometry>
        </mxCell>
        <mxCell id="JdINOegVUnqDGuHXTXD6-66" value="" style="shape=tableRow;horizontal=0;startSize=0;swimlaneHead=0;swimlaneBody=0;fillColor=none;collapsible=0;dropTarget=0;points=[[0,0.5],[1,0.5]];portConstraint=eastwest;top=0;left=0;right=0;bottom=0;labelBackgroundColor=none;strokeColor=#006658;fontColor=#5C5C5C;" parent="JdINOegVUnqDGuHXTXD6-56" vertex="1">
          <mxGeometry y="60" width="180" height="30" as="geometry" />
        </mxCell>
        <mxCell id="JdINOegVUnqDGuHXTXD6-67" value="FK" style="shape=partialRectangle;connectable=0;fillColor=none;top=0;left=0;bottom=0;right=0;editable=1;overflow=hidden;whiteSpace=wrap;html=1;labelBackgroundColor=none;strokeColor=#006658;fontColor=#5C5C5C;" parent="JdINOegVUnqDGuHXTXD6-66" vertex="1">
          <mxGeometry width="30" height="30" as="geometry">
            <mxRectangle width="30" height="30" as="alternateBounds" />
          </mxGeometry>
        </mxCell>
        <mxCell id="JdINOegVUnqDGuHXTXD6-68" value="UniversityID" style="shape=partialRectangle;connectable=0;fillColor=none;top=0;left=0;bottom=0;right=0;align=left;spacingLeft=6;overflow=hidden;whiteSpace=wrap;html=1;labelBackgroundColor=none;strokeColor=#006658;fontColor=#5C5C5C;" parent="JdINOegVUnqDGuHXTXD6-66" vertex="1">
          <mxGeometry x="30" width="150" height="30" as="geometry">
            <mxRectangle width="150" height="30" as="alternateBounds" />
          </mxGeometry>
        </mxCell>
        <mxCell id="JdINOegVUnqDGuHXTXD6-60" value="" style="shape=tableRow;horizontal=0;startSize=0;swimlaneHead=0;swimlaneBody=0;fillColor=none;collapsible=0;dropTarget=0;points=[[0,0.5],[1,0.5]];portConstraint=eastwest;top=0;left=0;right=0;bottom=0;labelBackgroundColor=none;strokeColor=#006658;fontColor=#5C5C5C;" parent="JdINOegVUnqDGuHXTXD6-56" vertex="1">
          <mxGeometry y="90" width="180" height="30" as="geometry" />
        </mxCell>
        <mxCell id="JdINOegVUnqDGuHXTXD6-61" value="" style="shape=partialRectangle;connectable=0;fillColor=none;top=0;left=0;bottom=0;right=0;editable=1;overflow=hidden;whiteSpace=wrap;html=1;labelBackgroundColor=none;strokeColor=#006658;fontColor=#5C5C5C;" parent="JdINOegVUnqDGuHXTXD6-60" vertex="1">
          <mxGeometry width="30" height="30" as="geometry">
            <mxRectangle width="30" height="30" as="alternateBounds" />
          </mxGeometry>
        </mxCell>
        <mxCell id="JdINOegVUnqDGuHXTXD6-62" value="name" style="shape=partialRectangle;connectable=0;fillColor=none;top=0;left=0;bottom=0;right=0;align=left;spacingLeft=6;overflow=hidden;whiteSpace=wrap;html=1;labelBackgroundColor=none;strokeColor=#006658;fontColor=#5C5C5C;" parent="JdINOegVUnqDGuHXTXD6-60" vertex="1">
          <mxGeometry x="30" width="150" height="30" as="geometry">
            <mxRectangle width="150" height="30" as="alternateBounds" />
          </mxGeometry>
        </mxCell>
        <mxCell id="JdINOegVUnqDGuHXTXD6-63" value="" style="shape=tableRow;horizontal=0;startSize=0;swimlaneHead=0;swimlaneBody=0;fillColor=none;collapsible=0;dropTarget=0;points=[[0,0.5],[1,0.5]];portConstraint=eastwest;top=0;left=0;right=0;bottom=0;labelBackgroundColor=none;strokeColor=#006658;fontColor=#5C5C5C;" parent="JdINOegVUnqDGuHXTXD6-56" vertex="1">
          <mxGeometry y="120" width="180" height="30" as="geometry" />
        </mxCell>
        <mxCell id="JdINOegVUnqDGuHXTXD6-64" value="FK" style="shape=partialRectangle;connectable=0;fillColor=none;top=0;left=0;bottom=0;right=0;editable=1;overflow=hidden;whiteSpace=wrap;html=1;labelBackgroundColor=none;strokeColor=#006658;fontColor=#5C5C5C;" parent="JdINOegVUnqDGuHXTXD6-63" vertex="1">
          <mxGeometry width="30" height="30" as="geometry">
            <mxRectangle width="30" height="30" as="alternateBounds" />
          </mxGeometry>
        </mxCell>
        <mxCell id="JdINOegVUnqDGuHXTXD6-65" value="DeanID" style="shape=partialRectangle;connectable=0;fillColor=none;top=0;left=0;bottom=0;right=0;align=left;spacingLeft=6;overflow=hidden;whiteSpace=wrap;html=1;labelBackgroundColor=none;strokeColor=#006658;fontColor=#5C5C5C;" parent="JdINOegVUnqDGuHXTXD6-63" vertex="1">
          <mxGeometry x="30" width="150" height="30" as="geometry">
            <mxRectangle width="150" height="30" as="alternateBounds" />
          </mxGeometry>
        </mxCell>
        <mxCell id="JdINOegVUnqDGuHXTXD6-69" value="EducationalProgrammes&amp;nbsp;" style="shape=table;startSize=30;container=1;collapsible=1;childLayout=tableLayout;fixedRows=1;rowLines=0;fontStyle=1;align=center;resizeLast=1;html=1;labelBackgroundColor=none;fillColor=#21C0A5;strokeColor=#006658;fontColor=#5C5C5C;" parent="1" vertex="1">
          <mxGeometry x="429" y="65" width="180" height="150" as="geometry" />
        </mxCell>
        <mxCell id="JdINOegVUnqDGuHXTXD6-70" value="" style="shape=tableRow;horizontal=0;startSize=0;swimlaneHead=0;swimlaneBody=0;fillColor=none;collapsible=0;dropTarget=0;points=[[0,0.5],[1,0.5]];portConstraint=eastwest;top=0;left=0;right=0;bottom=1;labelBackgroundColor=none;strokeColor=#006658;fontColor=#5C5C5C;" parent="JdINOegVUnqDGuHXTXD6-69" vertex="1">
          <mxGeometry y="30" width="180" height="30" as="geometry" />
        </mxCell>
        <mxCell id="JdINOegVUnqDGuHXTXD6-71" value="PK" style="shape=partialRectangle;connectable=0;fillColor=none;top=0;left=0;bottom=0;right=0;fontStyle=1;overflow=hidden;whiteSpace=wrap;html=1;labelBackgroundColor=none;strokeColor=#006658;fontColor=#5C5C5C;" parent="JdINOegVUnqDGuHXTXD6-70" vertex="1">
          <mxGeometry width="30" height="30" as="geometry">
            <mxRectangle width="30" height="30" as="alternateBounds" />
          </mxGeometry>
        </mxCell>
        <mxCell id="JdINOegVUnqDGuHXTXD6-72" value="ID" style="shape=partialRectangle;connectable=0;fillColor=none;top=0;left=0;bottom=0;right=0;align=left;spacingLeft=6;fontStyle=5;overflow=hidden;whiteSpace=wrap;html=1;labelBackgroundColor=none;strokeColor=#006658;fontColor=#5C5C5C;" parent="JdINOegVUnqDGuHXTXD6-70" vertex="1">
          <mxGeometry x="30" width="150" height="30" as="geometry">
            <mxRectangle width="150" height="30" as="alternateBounds" />
          </mxGeometry>
        </mxCell>
        <mxCell id="JdINOegVUnqDGuHXTXD6-73" value="" style="shape=tableRow;horizontal=0;startSize=0;swimlaneHead=0;swimlaneBody=0;fillColor=none;collapsible=0;dropTarget=0;points=[[0,0.5],[1,0.5]];portConstraint=eastwest;top=0;left=0;right=0;bottom=0;labelBackgroundColor=none;strokeColor=#006658;fontColor=#5C5C5C;" parent="JdINOegVUnqDGuHXTXD6-69" vertex="1">
          <mxGeometry y="60" width="180" height="30" as="geometry" />
        </mxCell>
        <mxCell id="JdINOegVUnqDGuHXTXD6-74" value="" style="shape=partialRectangle;connectable=0;fillColor=none;top=0;left=0;bottom=0;right=0;editable=1;overflow=hidden;whiteSpace=wrap;html=1;labelBackgroundColor=none;strokeColor=#006658;fontColor=#5C5C5C;" parent="JdINOegVUnqDGuHXTXD6-73" vertex="1">
          <mxGeometry width="30" height="30" as="geometry">
            <mxRectangle width="30" height="30" as="alternateBounds" />
          </mxGeometry>
        </mxCell>
        <mxCell id="JdINOegVUnqDGuHXTXD6-75" value="name" style="shape=partialRectangle;connectable=0;fillColor=none;top=0;left=0;bottom=0;right=0;align=left;spacingLeft=6;overflow=hidden;whiteSpace=wrap;html=1;labelBackgroundColor=none;strokeColor=#006658;fontColor=#5C5C5C;" parent="JdINOegVUnqDGuHXTXD6-73" vertex="1">
          <mxGeometry x="30" width="150" height="30" as="geometry">
            <mxRectangle width="150" height="30" as="alternateBounds" />
          </mxGeometry>
        </mxCell>
        <mxCell id="JdINOegVUnqDGuHXTXD6-76" value="" style="shape=tableRow;horizontal=0;startSize=0;swimlaneHead=0;swimlaneBody=0;fillColor=none;collapsible=0;dropTarget=0;points=[[0,0.5],[1,0.5]];portConstraint=eastwest;top=0;left=0;right=0;bottom=0;labelBackgroundColor=none;strokeColor=#006658;fontColor=#5C5C5C;" parent="JdINOegVUnqDGuHXTXD6-69" vertex="1">
          <mxGeometry y="90" width="180" height="30" as="geometry" />
        </mxCell>
        <mxCell id="JdINOegVUnqDGuHXTXD6-77" value="FK" style="shape=partialRectangle;connectable=0;fillColor=none;top=0;left=0;bottom=0;right=0;editable=1;overflow=hidden;whiteSpace=wrap;html=1;labelBackgroundColor=none;strokeColor=#006658;fontColor=#5C5C5C;" parent="JdINOegVUnqDGuHXTXD6-76" vertex="1">
          <mxGeometry width="30" height="30" as="geometry">
            <mxRectangle width="30" height="30" as="alternateBounds" />
          </mxGeometry>
        </mxCell>
        <mxCell id="JdINOegVUnqDGuHXTXD6-78" value="LevelID" style="shape=partialRectangle;connectable=0;fillColor=none;top=0;left=0;bottom=0;right=0;align=left;spacingLeft=6;overflow=hidden;whiteSpace=wrap;html=1;labelBackgroundColor=none;strokeColor=#006658;fontColor=#5C5C5C;" parent="JdINOegVUnqDGuHXTXD6-76" vertex="1">
          <mxGeometry x="30" width="150" height="30" as="geometry">
            <mxRectangle width="150" height="30" as="alternateBounds" />
          </mxGeometry>
        </mxCell>
        <mxCell id="JdINOegVUnqDGuHXTXD6-181" value="" style="shape=tableRow;horizontal=0;startSize=0;swimlaneHead=0;swimlaneBody=0;fillColor=none;collapsible=0;dropTarget=0;points=[[0,0.5],[1,0.5]];portConstraint=eastwest;top=0;left=0;right=0;bottom=0;labelBackgroundColor=none;strokeColor=#006658;fontColor=#5C5C5C;" parent="JdINOegVUnqDGuHXTXD6-69" vertex="1">
          <mxGeometry y="120" width="180" height="30" as="geometry" />
        </mxCell>
        <mxCell id="JdINOegVUnqDGuHXTXD6-182" value="FK" style="shape=partialRectangle;connectable=0;fillColor=none;top=0;left=0;bottom=0;right=0;fontStyle=0;overflow=hidden;whiteSpace=wrap;html=1;labelBackgroundColor=none;strokeColor=#006658;fontColor=#5C5C5C;" parent="JdINOegVUnqDGuHXTXD6-181" vertex="1">
          <mxGeometry width="30" height="30" as="geometry">
            <mxRectangle width="30" height="30" as="alternateBounds" />
          </mxGeometry>
        </mxCell>
        <mxCell id="JdINOegVUnqDGuHXTXD6-183" value="DepartmentID" style="shape=partialRectangle;connectable=0;fillColor=none;top=0;left=0;bottom=0;right=0;align=left;spacingLeft=6;fontStyle=0;overflow=hidden;whiteSpace=wrap;html=1;labelBackgroundColor=none;strokeColor=#006658;fontColor=#5C5C5C;" parent="JdINOegVUnqDGuHXTXD6-181" vertex="1">
          <mxGeometry x="30" width="150" height="30" as="geometry">
            <mxRectangle width="150" height="30" as="alternateBounds" />
          </mxGeometry>
        </mxCell>
        <mxCell id="JdINOegVUnqDGuHXTXD6-82" value="EducationLevels" style="shape=table;startSize=30;container=1;collapsible=1;childLayout=tableLayout;fixedRows=1;rowLines=0;fontStyle=1;align=center;resizeLast=1;html=1;labelBackgroundColor=none;fillColor=#21C0A5;strokeColor=#006658;fontColor=#5C5C5C;" parent="1" vertex="1">
          <mxGeometry x="679" y="25" width="140" height="120" as="geometry" />
        </mxCell>
        <mxCell id="JdINOegVUnqDGuHXTXD6-83" value="" style="shape=tableRow;horizontal=0;startSize=0;swimlaneHead=0;swimlaneBody=0;fillColor=none;collapsible=0;dropTarget=0;points=[[0,0.5],[1,0.5]];portConstraint=eastwest;top=0;left=0;right=0;bottom=1;labelBackgroundColor=none;strokeColor=#006658;fontColor=#5C5C5C;" parent="JdINOegVUnqDGuHXTXD6-82" vertex="1">
          <mxGeometry y="30" width="140" height="30" as="geometry" />
        </mxCell>
        <mxCell id="JdINOegVUnqDGuHXTXD6-84" value="PK" style="shape=partialRectangle;connectable=0;fillColor=none;top=0;left=0;bottom=0;right=0;fontStyle=1;overflow=hidden;whiteSpace=wrap;html=1;labelBackgroundColor=none;strokeColor=#006658;fontColor=#5C5C5C;" parent="JdINOegVUnqDGuHXTXD6-83" vertex="1">
          <mxGeometry width="30" height="30" as="geometry">
            <mxRectangle width="30" height="30" as="alternateBounds" />
          </mxGeometry>
        </mxCell>
        <mxCell id="JdINOegVUnqDGuHXTXD6-85" value="ID" style="shape=partialRectangle;connectable=0;fillColor=none;top=0;left=0;bottom=0;right=0;align=left;spacingLeft=6;fontStyle=5;overflow=hidden;whiteSpace=wrap;html=1;labelBackgroundColor=none;strokeColor=#006658;fontColor=#5C5C5C;" parent="JdINOegVUnqDGuHXTXD6-83" vertex="1">
          <mxGeometry x="30" width="110" height="30" as="geometry">
            <mxRectangle width="110" height="30" as="alternateBounds" />
          </mxGeometry>
        </mxCell>
        <mxCell id="JdINOegVUnqDGuHXTXD6-86" value="" style="shape=tableRow;horizontal=0;startSize=0;swimlaneHead=0;swimlaneBody=0;fillColor=none;collapsible=0;dropTarget=0;points=[[0,0.5],[1,0.5]];portConstraint=eastwest;top=0;left=0;right=0;bottom=0;labelBackgroundColor=none;strokeColor=#006658;fontColor=#5C5C5C;" parent="JdINOegVUnqDGuHXTXD6-82" vertex="1">
          <mxGeometry y="60" width="140" height="30" as="geometry" />
        </mxCell>
        <mxCell id="JdINOegVUnqDGuHXTXD6-87" value="" style="shape=partialRectangle;connectable=0;fillColor=none;top=0;left=0;bottom=0;right=0;editable=1;overflow=hidden;whiteSpace=wrap;html=1;labelBackgroundColor=none;strokeColor=#006658;fontColor=#5C5C5C;" parent="JdINOegVUnqDGuHXTXD6-86" vertex="1">
          <mxGeometry width="30" height="30" as="geometry">
            <mxRectangle width="30" height="30" as="alternateBounds" />
          </mxGeometry>
        </mxCell>
        <mxCell id="JdINOegVUnqDGuHXTXD6-88" value="name" style="shape=partialRectangle;connectable=0;fillColor=none;top=0;left=0;bottom=0;right=0;align=left;spacingLeft=6;overflow=hidden;whiteSpace=wrap;html=1;labelBackgroundColor=none;strokeColor=#006658;fontColor=#5C5C5C;" parent="JdINOegVUnqDGuHXTXD6-86" vertex="1">
          <mxGeometry x="30" width="110" height="30" as="geometry">
            <mxRectangle width="110" height="30" as="alternateBounds" />
          </mxGeometry>
        </mxCell>
        <mxCell id="JdINOegVUnqDGuHXTXD6-89" value="" style="shape=tableRow;horizontal=0;startSize=0;swimlaneHead=0;swimlaneBody=0;fillColor=none;collapsible=0;dropTarget=0;points=[[0,0.5],[1,0.5]];portConstraint=eastwest;top=0;left=0;right=0;bottom=0;labelBackgroundColor=none;strokeColor=#006658;fontColor=#5C5C5C;" parent="JdINOegVUnqDGuHXTXD6-82" vertex="1">
          <mxGeometry y="90" width="140" height="30" as="geometry" />
        </mxCell>
        <mxCell id="JdINOegVUnqDGuHXTXD6-90" value="" style="shape=partialRectangle;connectable=0;fillColor=none;top=0;left=0;bottom=0;right=0;editable=1;overflow=hidden;whiteSpace=wrap;html=1;labelBackgroundColor=none;strokeColor=#006658;fontColor=#5C5C5C;" parent="JdINOegVUnqDGuHXTXD6-89" vertex="1">
          <mxGeometry width="30" height="30" as="geometry">
            <mxRectangle width="30" height="30" as="alternateBounds" />
          </mxGeometry>
        </mxCell>
        <mxCell id="JdINOegVUnqDGuHXTXD6-91" value="duration" style="shape=partialRectangle;connectable=0;fillColor=none;top=0;left=0;bottom=0;right=0;align=left;spacingLeft=6;overflow=hidden;whiteSpace=wrap;html=1;labelBackgroundColor=none;strokeColor=#006658;fontColor=#5C5C5C;" parent="JdINOegVUnqDGuHXTXD6-89" vertex="1">
          <mxGeometry x="30" width="110" height="30" as="geometry">
            <mxRectangle width="110" height="30" as="alternateBounds" />
          </mxGeometry>
        </mxCell>
        <mxCell id="JdINOegVUnqDGuHXTXD6-95" value="Groups" style="shape=table;startSize=30;container=1;collapsible=1;childLayout=tableLayout;fixedRows=1;rowLines=0;fontStyle=1;align=center;resizeLast=1;html=1;labelBackgroundColor=none;fillColor=#21C0A5;strokeColor=#006658;fontColor=#5C5C5C;" parent="1" vertex="1">
          <mxGeometry x="639" y="255" width="140" height="150" as="geometry" />
        </mxCell>
        <mxCell id="JdINOegVUnqDGuHXTXD6-96" value="" style="shape=tableRow;horizontal=0;startSize=0;swimlaneHead=0;swimlaneBody=0;fillColor=none;collapsible=0;dropTarget=0;points=[[0,0.5],[1,0.5]];portConstraint=eastwest;top=0;left=0;right=0;bottom=1;labelBackgroundColor=none;strokeColor=#006658;fontColor=#5C5C5C;" parent="JdINOegVUnqDGuHXTXD6-95" vertex="1">
          <mxGeometry y="30" width="140" height="30" as="geometry" />
        </mxCell>
        <mxCell id="JdINOegVUnqDGuHXTXD6-97" value="PK" style="shape=partialRectangle;connectable=0;fillColor=none;top=0;left=0;bottom=0;right=0;fontStyle=1;overflow=hidden;whiteSpace=wrap;html=1;labelBackgroundColor=none;strokeColor=#006658;fontColor=#5C5C5C;" parent="JdINOegVUnqDGuHXTXD6-96" vertex="1">
          <mxGeometry width="30" height="30" as="geometry">
            <mxRectangle width="30" height="30" as="alternateBounds" />
          </mxGeometry>
        </mxCell>
        <mxCell id="JdINOegVUnqDGuHXTXD6-98" value="ID" style="shape=partialRectangle;connectable=0;fillColor=none;top=0;left=0;bottom=0;right=0;align=left;spacingLeft=6;fontStyle=5;overflow=hidden;whiteSpace=wrap;html=1;labelBackgroundColor=none;strokeColor=#006658;fontColor=#5C5C5C;" parent="JdINOegVUnqDGuHXTXD6-96" vertex="1">
          <mxGeometry x="30" width="110" height="30" as="geometry">
            <mxRectangle width="110" height="30" as="alternateBounds" />
          </mxGeometry>
        </mxCell>
        <mxCell id="JdINOegVUnqDGuHXTXD6-99" value="" style="shape=tableRow;horizontal=0;startSize=0;swimlaneHead=0;swimlaneBody=0;fillColor=none;collapsible=0;dropTarget=0;points=[[0,0.5],[1,0.5]];portConstraint=eastwest;top=0;left=0;right=0;bottom=0;labelBackgroundColor=none;strokeColor=#006658;fontColor=#5C5C5C;" parent="JdINOegVUnqDGuHXTXD6-95" vertex="1">
          <mxGeometry y="60" width="140" height="30" as="geometry" />
        </mxCell>
        <mxCell id="JdINOegVUnqDGuHXTXD6-100" value="FK" style="shape=partialRectangle;connectable=0;fillColor=none;top=0;left=0;bottom=0;right=0;editable=1;overflow=hidden;whiteSpace=wrap;html=1;labelBackgroundColor=none;strokeColor=#006658;fontColor=#5C5C5C;" parent="JdINOegVUnqDGuHXTXD6-99" vertex="1">
          <mxGeometry width="30" height="30" as="geometry">
            <mxRectangle width="30" height="30" as="alternateBounds" />
          </mxGeometry>
        </mxCell>
        <mxCell id="JdINOegVUnqDGuHXTXD6-101" value="programmeID" style="shape=partialRectangle;connectable=0;fillColor=none;top=0;left=0;bottom=0;right=0;align=left;spacingLeft=6;overflow=hidden;whiteSpace=wrap;html=1;labelBackgroundColor=none;strokeColor=#006658;fontColor=#5C5C5C;" parent="JdINOegVUnqDGuHXTXD6-99" vertex="1">
          <mxGeometry x="30" width="110" height="30" as="geometry">
            <mxRectangle width="110" height="30" as="alternateBounds" />
          </mxGeometry>
        </mxCell>
        <mxCell id="JdINOegVUnqDGuHXTXD6-102" value="" style="shape=tableRow;horizontal=0;startSize=0;swimlaneHead=0;swimlaneBody=0;fillColor=none;collapsible=0;dropTarget=0;points=[[0,0.5],[1,0.5]];portConstraint=eastwest;top=0;left=0;right=0;bottom=0;labelBackgroundColor=none;strokeColor=#006658;fontColor=#5C5C5C;" parent="JdINOegVUnqDGuHXTXD6-95" vertex="1">
          <mxGeometry y="90" width="140" height="30" as="geometry" />
        </mxCell>
        <mxCell id="JdINOegVUnqDGuHXTXD6-103" value="" style="shape=partialRectangle;connectable=0;fillColor=none;top=0;left=0;bottom=0;right=0;editable=1;overflow=hidden;whiteSpace=wrap;html=1;labelBackgroundColor=none;strokeColor=#006658;fontColor=#5C5C5C;" parent="JdINOegVUnqDGuHXTXD6-102" vertex="1">
          <mxGeometry width="30" height="30" as="geometry">
            <mxRectangle width="30" height="30" as="alternateBounds" />
          </mxGeometry>
        </mxCell>
        <mxCell id="JdINOegVUnqDGuHXTXD6-104" value="groupNumber" style="shape=partialRectangle;connectable=0;fillColor=none;top=0;left=0;bottom=0;right=0;align=left;spacingLeft=6;overflow=hidden;whiteSpace=wrap;html=1;labelBackgroundColor=none;strokeColor=#006658;fontColor=#5C5C5C;" parent="JdINOegVUnqDGuHXTXD6-102" vertex="1">
          <mxGeometry x="30" width="110" height="30" as="geometry">
            <mxRectangle width="110" height="30" as="alternateBounds" />
          </mxGeometry>
        </mxCell>
        <mxCell id="JdINOegVUnqDGuHXTXD6-105" value="" style="shape=tableRow;horizontal=0;startSize=0;swimlaneHead=0;swimlaneBody=0;fillColor=none;collapsible=0;dropTarget=0;points=[[0,0.5],[1,0.5]];portConstraint=eastwest;top=0;left=0;right=0;bottom=0;labelBackgroundColor=none;strokeColor=#006658;fontColor=#5C5C5C;" parent="JdINOegVUnqDGuHXTXD6-95" vertex="1">
          <mxGeometry y="120" width="140" height="30" as="geometry" />
        </mxCell>
        <mxCell id="JdINOegVUnqDGuHXTXD6-106" value="" style="shape=partialRectangle;connectable=0;fillColor=none;top=0;left=0;bottom=0;right=0;editable=1;overflow=hidden;whiteSpace=wrap;html=1;labelBackgroundColor=none;strokeColor=#006658;fontColor=#5C5C5C;" parent="JdINOegVUnqDGuHXTXD6-105" vertex="1">
          <mxGeometry width="30" height="30" as="geometry">
            <mxRectangle width="30" height="30" as="alternateBounds" />
          </mxGeometry>
        </mxCell>
        <mxCell id="JdINOegVUnqDGuHXTXD6-107" value="courseLevel" style="shape=partialRectangle;connectable=0;fillColor=none;top=0;left=0;bottom=0;right=0;align=left;spacingLeft=6;overflow=hidden;whiteSpace=wrap;html=1;labelBackgroundColor=none;strokeColor=#006658;fontColor=#5C5C5C;" parent="JdINOegVUnqDGuHXTXD6-105" vertex="1">
          <mxGeometry x="30" width="110" height="30" as="geometry">
            <mxRectangle width="110" height="30" as="alternateBounds" />
          </mxGeometry>
        </mxCell>
        <mxCell id="JdINOegVUnqDGuHXTXD6-108" value="Students" style="shape=table;startSize=30;container=1;collapsible=1;childLayout=tableLayout;fixedRows=1;rowLines=0;fontStyle=1;align=center;resizeLast=1;html=1;labelBackgroundColor=none;fillColor=#21C0A5;strokeColor=#006658;fontColor=#5C5C5C;" parent="1" vertex="1">
          <mxGeometry x="589" y="430" width="180" height="150" as="geometry" />
        </mxCell>
        <mxCell id="JdINOegVUnqDGuHXTXD6-109" value="" style="shape=tableRow;horizontal=0;startSize=0;swimlaneHead=0;swimlaneBody=0;fillColor=none;collapsible=0;dropTarget=0;points=[[0,0.5],[1,0.5]];portConstraint=eastwest;top=0;left=0;right=0;bottom=1;labelBackgroundColor=none;strokeColor=#006658;fontColor=#5C5C5C;" parent="JdINOegVUnqDGuHXTXD6-108" vertex="1">
          <mxGeometry y="30" width="180" height="30" as="geometry" />
        </mxCell>
        <mxCell id="JdINOegVUnqDGuHXTXD6-110" value="PK" style="shape=partialRectangle;connectable=0;fillColor=none;top=0;left=0;bottom=0;right=0;fontStyle=1;overflow=hidden;whiteSpace=wrap;html=1;labelBackgroundColor=none;strokeColor=#006658;fontColor=#5C5C5C;" parent="JdINOegVUnqDGuHXTXD6-109" vertex="1">
          <mxGeometry width="30" height="30" as="geometry">
            <mxRectangle width="30" height="30" as="alternateBounds" />
          </mxGeometry>
        </mxCell>
        <mxCell id="JdINOegVUnqDGuHXTXD6-111" value="ID" style="shape=partialRectangle;connectable=0;fillColor=none;top=0;left=0;bottom=0;right=0;align=left;spacingLeft=6;fontStyle=5;overflow=hidden;whiteSpace=wrap;html=1;labelBackgroundColor=none;strokeColor=#006658;fontColor=#5C5C5C;" parent="JdINOegVUnqDGuHXTXD6-109" vertex="1">
          <mxGeometry x="30" width="150" height="30" as="geometry">
            <mxRectangle width="150" height="30" as="alternateBounds" />
          </mxGeometry>
        </mxCell>
        <mxCell id="JdINOegVUnqDGuHXTXD6-112" value="" style="shape=tableRow;horizontal=0;startSize=0;swimlaneHead=0;swimlaneBody=0;fillColor=none;collapsible=0;dropTarget=0;points=[[0,0.5],[1,0.5]];portConstraint=eastwest;top=0;left=0;right=0;bottom=0;labelBackgroundColor=none;strokeColor=#006658;fontColor=#5C5C5C;" parent="JdINOegVUnqDGuHXTXD6-108" vertex="1">
          <mxGeometry y="60" width="180" height="30" as="geometry" />
        </mxCell>
        <mxCell id="JdINOegVUnqDGuHXTXD6-113" value="FK" style="shape=partialRectangle;connectable=0;fillColor=none;top=0;left=0;bottom=0;right=0;editable=1;overflow=hidden;whiteSpace=wrap;html=1;labelBackgroundColor=none;strokeColor=#006658;fontColor=#5C5C5C;" parent="JdINOegVUnqDGuHXTXD6-112" vertex="1">
          <mxGeometry width="30" height="30" as="geometry">
            <mxRectangle width="30" height="30" as="alternateBounds" />
          </mxGeometry>
        </mxCell>
        <mxCell id="JdINOegVUnqDGuHXTXD6-114" value="GroupID" style="shape=partialRectangle;connectable=0;fillColor=none;top=0;left=0;bottom=0;right=0;align=left;spacingLeft=6;overflow=hidden;whiteSpace=wrap;html=1;labelBackgroundColor=none;strokeColor=#006658;fontColor=#5C5C5C;" parent="JdINOegVUnqDGuHXTXD6-112" vertex="1">
          <mxGeometry x="30" width="150" height="30" as="geometry">
            <mxRectangle width="150" height="30" as="alternateBounds" />
          </mxGeometry>
        </mxCell>
        <mxCell id="JdINOegVUnqDGuHXTXD6-115" value="" style="shape=tableRow;horizontal=0;startSize=0;swimlaneHead=0;swimlaneBody=0;fillColor=none;collapsible=0;dropTarget=0;points=[[0,0.5],[1,0.5]];portConstraint=eastwest;top=0;left=0;right=0;bottom=0;labelBackgroundColor=none;strokeColor=#006658;fontColor=#5C5C5C;" parent="JdINOegVUnqDGuHXTXD6-108" vertex="1">
          <mxGeometry y="90" width="180" height="30" as="geometry" />
        </mxCell>
        <mxCell id="JdINOegVUnqDGuHXTXD6-116" value="FK" style="shape=partialRectangle;connectable=0;fillColor=none;top=0;left=0;bottom=0;right=0;editable=1;overflow=hidden;whiteSpace=wrap;html=1;labelBackgroundColor=none;strokeColor=#006658;fontColor=#5C5C5C;" parent="JdINOegVUnqDGuHXTXD6-115" vertex="1">
          <mxGeometry width="30" height="30" as="geometry">
            <mxRectangle width="30" height="30" as="alternateBounds" />
          </mxGeometry>
        </mxCell>
        <mxCell id="JdINOegVUnqDGuHXTXD6-117" value="PersonID" style="shape=partialRectangle;connectable=0;fillColor=none;top=0;left=0;bottom=0;right=0;align=left;spacingLeft=6;overflow=hidden;whiteSpace=wrap;html=1;labelBackgroundColor=none;strokeColor=#006658;fontColor=#5C5C5C;" parent="JdINOegVUnqDGuHXTXD6-115" vertex="1">
          <mxGeometry x="30" width="150" height="30" as="geometry">
            <mxRectangle width="150" height="30" as="alternateBounds" />
          </mxGeometry>
        </mxCell>
        <mxCell id="JdINOegVUnqDGuHXTXD6-210" value="" style="shape=tableRow;horizontal=0;startSize=0;swimlaneHead=0;swimlaneBody=0;fillColor=none;collapsible=0;dropTarget=0;points=[[0,0.5],[1,0.5]];portConstraint=eastwest;top=0;left=0;right=0;bottom=0;labelBackgroundColor=none;strokeColor=#006658;fontColor=#5C5C5C;" parent="JdINOegVUnqDGuHXTXD6-108" vertex="1">
          <mxGeometry y="120" width="180" height="30" as="geometry" />
        </mxCell>
        <mxCell id="JdINOegVUnqDGuHXTXD6-211" value="FK" style="shape=partialRectangle;connectable=0;fillColor=none;top=0;left=0;bottom=0;right=0;editable=1;overflow=hidden;labelBackgroundColor=none;strokeColor=#006658;fontColor=#5C5C5C;" parent="JdINOegVUnqDGuHXTXD6-210" vertex="1">
          <mxGeometry width="30" height="30" as="geometry">
            <mxRectangle width="30" height="30" as="alternateBounds" />
          </mxGeometry>
        </mxCell>
        <mxCell id="JdINOegVUnqDGuHXTXD6-212" value="DepartmentID" style="shape=partialRectangle;connectable=0;fillColor=none;top=0;left=0;bottom=0;right=0;align=left;spacingLeft=6;overflow=hidden;labelBackgroundColor=none;strokeColor=#006658;fontColor=#5C5C5C;" parent="JdINOegVUnqDGuHXTXD6-210" vertex="1">
          <mxGeometry x="30" width="150" height="30" as="geometry">
            <mxRectangle width="150" height="30" as="alternateBounds" />
          </mxGeometry>
        </mxCell>
        <mxCell id="JdINOegVUnqDGuHXTXD6-121" value="People" style="shape=table;startSize=30;container=1;collapsible=1;childLayout=tableLayout;fixedRows=1;rowLines=0;fontStyle=1;align=center;resizeLast=1;html=1;labelBackgroundColor=none;fillColor=#21C0A5;strokeColor=#006658;fontColor=#5C5C5C;" parent="1" vertex="1">
          <mxGeometry x="559" y="595" width="180" height="300" as="geometry" />
        </mxCell>
        <mxCell id="JdINOegVUnqDGuHXTXD6-122" value="" style="shape=tableRow;horizontal=0;startSize=0;swimlaneHead=0;swimlaneBody=0;fillColor=none;collapsible=0;dropTarget=0;points=[[0,0.5],[1,0.5]];portConstraint=eastwest;top=0;left=0;right=0;bottom=1;labelBackgroundColor=none;strokeColor=#006658;fontColor=#5C5C5C;" parent="JdINOegVUnqDGuHXTXD6-121" vertex="1">
          <mxGeometry y="30" width="180" height="30" as="geometry" />
        </mxCell>
        <mxCell id="JdINOegVUnqDGuHXTXD6-123" value="PK" style="shape=partialRectangle;connectable=0;fillColor=none;top=0;left=0;bottom=0;right=0;fontStyle=1;overflow=hidden;whiteSpace=wrap;html=1;labelBackgroundColor=none;strokeColor=#006658;fontColor=#5C5C5C;" parent="JdINOegVUnqDGuHXTXD6-122" vertex="1">
          <mxGeometry width="30" height="30" as="geometry">
            <mxRectangle width="30" height="30" as="alternateBounds" />
          </mxGeometry>
        </mxCell>
        <mxCell id="JdINOegVUnqDGuHXTXD6-124" value="ID" style="shape=partialRectangle;connectable=0;fillColor=none;top=0;left=0;bottom=0;right=0;align=left;spacingLeft=6;fontStyle=5;overflow=hidden;whiteSpace=wrap;html=1;labelBackgroundColor=none;strokeColor=#006658;fontColor=#5C5C5C;" parent="JdINOegVUnqDGuHXTXD6-122" vertex="1">
          <mxGeometry x="30" width="150" height="30" as="geometry">
            <mxRectangle width="150" height="30" as="alternateBounds" />
          </mxGeometry>
        </mxCell>
        <mxCell id="JdINOegVUnqDGuHXTXD6-125" value="" style="shape=tableRow;horizontal=0;startSize=0;swimlaneHead=0;swimlaneBody=0;fillColor=none;collapsible=0;dropTarget=0;points=[[0,0.5],[1,0.5]];portConstraint=eastwest;top=0;left=0;right=0;bottom=0;labelBackgroundColor=none;strokeColor=#006658;fontColor=#5C5C5C;" parent="JdINOegVUnqDGuHXTXD6-121" vertex="1">
          <mxGeometry y="60" width="180" height="30" as="geometry" />
        </mxCell>
        <mxCell id="JdINOegVUnqDGuHXTXD6-126" value="" style="shape=partialRectangle;connectable=0;fillColor=none;top=0;left=0;bottom=0;right=0;editable=1;overflow=hidden;whiteSpace=wrap;html=1;labelBackgroundColor=none;strokeColor=#006658;fontColor=#5C5C5C;" parent="JdINOegVUnqDGuHXTXD6-125" vertex="1">
          <mxGeometry width="30" height="30" as="geometry">
            <mxRectangle width="30" height="30" as="alternateBounds" />
          </mxGeometry>
        </mxCell>
        <mxCell id="JdINOegVUnqDGuHXTXD6-127" value="firstName" style="shape=partialRectangle;connectable=0;fillColor=none;top=0;left=0;bottom=0;right=0;align=left;spacingLeft=6;overflow=hidden;whiteSpace=wrap;html=1;labelBackgroundColor=none;strokeColor=#006658;fontColor=#5C5C5C;" parent="JdINOegVUnqDGuHXTXD6-125" vertex="1">
          <mxGeometry x="30" width="150" height="30" as="geometry">
            <mxRectangle width="150" height="30" as="alternateBounds" />
          </mxGeometry>
        </mxCell>
        <mxCell id="JdINOegVUnqDGuHXTXD6-128" value="" style="shape=tableRow;horizontal=0;startSize=0;swimlaneHead=0;swimlaneBody=0;fillColor=none;collapsible=0;dropTarget=0;points=[[0,0.5],[1,0.5]];portConstraint=eastwest;top=0;left=0;right=0;bottom=0;labelBackgroundColor=none;strokeColor=#006658;fontColor=#5C5C5C;" parent="JdINOegVUnqDGuHXTXD6-121" vertex="1">
          <mxGeometry y="90" width="180" height="30" as="geometry" />
        </mxCell>
        <mxCell id="JdINOegVUnqDGuHXTXD6-129" value="" style="shape=partialRectangle;connectable=0;fillColor=none;top=0;left=0;bottom=0;right=0;editable=1;overflow=hidden;whiteSpace=wrap;html=1;labelBackgroundColor=none;strokeColor=#006658;fontColor=#5C5C5C;" parent="JdINOegVUnqDGuHXTXD6-128" vertex="1">
          <mxGeometry width="30" height="30" as="geometry">
            <mxRectangle width="30" height="30" as="alternateBounds" />
          </mxGeometry>
        </mxCell>
        <mxCell id="JdINOegVUnqDGuHXTXD6-130" value="lastName" style="shape=partialRectangle;connectable=0;fillColor=none;top=0;left=0;bottom=0;right=0;align=left;spacingLeft=6;overflow=hidden;whiteSpace=wrap;html=1;labelBackgroundColor=none;strokeColor=#006658;fontColor=#5C5C5C;" parent="JdINOegVUnqDGuHXTXD6-128" vertex="1">
          <mxGeometry x="30" width="150" height="30" as="geometry">
            <mxRectangle width="150" height="30" as="alternateBounds" />
          </mxGeometry>
        </mxCell>
        <mxCell id="JdINOegVUnqDGuHXTXD6-131" value="" style="shape=tableRow;horizontal=0;startSize=0;swimlaneHead=0;swimlaneBody=0;fillColor=none;collapsible=0;dropTarget=0;points=[[0,0.5],[1,0.5]];portConstraint=eastwest;top=0;left=0;right=0;bottom=0;labelBackgroundColor=none;strokeColor=#006658;fontColor=#5C5C5C;" parent="JdINOegVUnqDGuHXTXD6-121" vertex="1">
          <mxGeometry y="120" width="180" height="30" as="geometry" />
        </mxCell>
        <mxCell id="JdINOegVUnqDGuHXTXD6-132" value="" style="shape=partialRectangle;connectable=0;fillColor=none;top=0;left=0;bottom=0;right=0;editable=1;overflow=hidden;whiteSpace=wrap;html=1;labelBackgroundColor=none;strokeColor=#006658;fontColor=#5C5C5C;" parent="JdINOegVUnqDGuHXTXD6-131" vertex="1">
          <mxGeometry width="30" height="30" as="geometry">
            <mxRectangle width="30" height="30" as="alternateBounds" />
          </mxGeometry>
        </mxCell>
        <mxCell id="JdINOegVUnqDGuHXTXD6-133" value="middleName" style="shape=partialRectangle;connectable=0;fillColor=none;top=0;left=0;bottom=0;right=0;align=left;spacingLeft=6;overflow=hidden;whiteSpace=wrap;html=1;labelBackgroundColor=none;strokeColor=#006658;fontColor=#5C5C5C;" parent="JdINOegVUnqDGuHXTXD6-131" vertex="1">
          <mxGeometry x="30" width="150" height="30" as="geometry">
            <mxRectangle width="150" height="30" as="alternateBounds" />
          </mxGeometry>
        </mxCell>
        <mxCell id="JdINOegVUnqDGuHXTXD6-134" value="" style="shape=tableRow;horizontal=0;startSize=0;swimlaneHead=0;swimlaneBody=0;fillColor=none;collapsible=0;dropTarget=0;points=[[0,0.5],[1,0.5]];portConstraint=eastwest;top=0;left=0;right=0;bottom=0;labelBackgroundColor=none;strokeColor=#006658;fontColor=#5C5C5C;" parent="JdINOegVUnqDGuHXTXD6-121" vertex="1">
          <mxGeometry y="150" width="180" height="30" as="geometry" />
        </mxCell>
        <mxCell id="JdINOegVUnqDGuHXTXD6-135" value="" style="shape=partialRectangle;connectable=0;fillColor=none;top=0;left=0;bottom=0;right=0;editable=1;overflow=hidden;labelBackgroundColor=none;strokeColor=#006658;fontColor=#5C5C5C;" parent="JdINOegVUnqDGuHXTXD6-134" vertex="1">
          <mxGeometry width="30" height="30" as="geometry">
            <mxRectangle width="30" height="30" as="alternateBounds" />
          </mxGeometry>
        </mxCell>
        <mxCell id="JdINOegVUnqDGuHXTXD6-136" value="gender" style="shape=partialRectangle;connectable=0;fillColor=none;top=0;left=0;bottom=0;right=0;align=left;spacingLeft=6;overflow=hidden;labelBackgroundColor=none;strokeColor=#006658;fontColor=#5C5C5C;" parent="JdINOegVUnqDGuHXTXD6-134" vertex="1">
          <mxGeometry x="30" width="150" height="30" as="geometry">
            <mxRectangle width="150" height="30" as="alternateBounds" />
          </mxGeometry>
        </mxCell>
        <mxCell id="JdINOegVUnqDGuHXTXD6-140" value="" style="shape=tableRow;horizontal=0;startSize=0;swimlaneHead=0;swimlaneBody=0;fillColor=none;collapsible=0;dropTarget=0;points=[[0,0.5],[1,0.5]];portConstraint=eastwest;top=0;left=0;right=0;bottom=0;labelBackgroundColor=none;strokeColor=#006658;fontColor=#5C5C5C;" parent="JdINOegVUnqDGuHXTXD6-121" vertex="1">
          <mxGeometry y="180" width="180" height="30" as="geometry" />
        </mxCell>
        <mxCell id="JdINOegVUnqDGuHXTXD6-141" value="" style="shape=partialRectangle;connectable=0;fillColor=none;top=0;left=0;bottom=0;right=0;editable=1;overflow=hidden;labelBackgroundColor=none;strokeColor=#006658;fontColor=#5C5C5C;" parent="JdINOegVUnqDGuHXTXD6-140" vertex="1">
          <mxGeometry width="30" height="30" as="geometry">
            <mxRectangle width="30" height="30" as="alternateBounds" />
          </mxGeometry>
        </mxCell>
        <mxCell id="JdINOegVUnqDGuHXTXD6-142" value="phone" style="shape=partialRectangle;connectable=0;fillColor=none;top=0;left=0;bottom=0;right=0;align=left;spacingLeft=6;overflow=hidden;labelBackgroundColor=none;strokeColor=#006658;fontColor=#5C5C5C;" parent="JdINOegVUnqDGuHXTXD6-140" vertex="1">
          <mxGeometry x="30" width="150" height="30" as="geometry">
            <mxRectangle width="150" height="30" as="alternateBounds" />
          </mxGeometry>
        </mxCell>
        <mxCell id="JdINOegVUnqDGuHXTXD6-174" value="" style="shape=tableRow;horizontal=0;startSize=0;swimlaneHead=0;swimlaneBody=0;fillColor=none;collapsible=0;dropTarget=0;points=[[0,0.5],[1,0.5]];portConstraint=eastwest;top=0;left=0;right=0;bottom=0;labelBackgroundColor=none;strokeColor=#006658;fontColor=#5C5C5C;" parent="JdINOegVUnqDGuHXTXD6-121" vertex="1">
          <mxGeometry y="210" width="180" height="30" as="geometry" />
        </mxCell>
        <mxCell id="JdINOegVUnqDGuHXTXD6-175" value="" style="shape=partialRectangle;connectable=0;fillColor=none;top=0;left=0;bottom=0;right=0;editable=1;overflow=hidden;labelBackgroundColor=none;strokeColor=#006658;fontColor=#5C5C5C;" parent="JdINOegVUnqDGuHXTXD6-174" vertex="1">
          <mxGeometry width="30" height="30" as="geometry">
            <mxRectangle width="30" height="30" as="alternateBounds" />
          </mxGeometry>
        </mxCell>
        <mxCell id="JdINOegVUnqDGuHXTXD6-176" value="email" style="shape=partialRectangle;connectable=0;fillColor=none;top=0;left=0;bottom=0;right=0;align=left;spacingLeft=6;overflow=hidden;labelBackgroundColor=none;strokeColor=#006658;fontColor=#5C5C5C;" parent="JdINOegVUnqDGuHXTXD6-174" vertex="1">
          <mxGeometry x="30" width="150" height="30" as="geometry">
            <mxRectangle width="150" height="30" as="alternateBounds" />
          </mxGeometry>
        </mxCell>
        <mxCell id="JdINOegVUnqDGuHXTXD6-186" value="" style="shape=tableRow;horizontal=0;startSize=0;swimlaneHead=0;swimlaneBody=0;fillColor=none;collapsible=0;dropTarget=0;points=[[0,0.5],[1,0.5]];portConstraint=eastwest;top=0;left=0;right=0;bottom=0;labelBackgroundColor=none;strokeColor=#006658;fontColor=#5C5C5C;" parent="JdINOegVUnqDGuHXTXD6-121" vertex="1">
          <mxGeometry y="240" width="180" height="30" as="geometry" />
        </mxCell>
        <mxCell id="JdINOegVUnqDGuHXTXD6-187" value="" style="shape=partialRectangle;connectable=0;fillColor=none;top=0;left=0;bottom=0;right=0;editable=1;overflow=hidden;labelBackgroundColor=none;strokeColor=#006658;fontColor=#5C5C5C;" parent="JdINOegVUnqDGuHXTXD6-186" vertex="1">
          <mxGeometry width="30" height="30" as="geometry">
            <mxRectangle width="30" height="30" as="alternateBounds" />
          </mxGeometry>
        </mxCell>
        <mxCell id="JdINOegVUnqDGuHXTXD6-188" value="admissionDate" style="shape=partialRectangle;connectable=0;fillColor=none;top=0;left=0;bottom=0;right=0;align=left;spacingLeft=6;overflow=hidden;labelBackgroundColor=none;strokeColor=#006658;fontColor=#5C5C5C;" parent="JdINOegVUnqDGuHXTXD6-186" vertex="1">
          <mxGeometry x="30" width="150" height="30" as="geometry">
            <mxRectangle width="150" height="30" as="alternateBounds" />
          </mxGeometry>
        </mxCell>
        <mxCell id="JdINOegVUnqDGuHXTXD6-207" value="" style="shape=tableRow;horizontal=0;startSize=0;swimlaneHead=0;swimlaneBody=0;fillColor=none;collapsible=0;dropTarget=0;points=[[0,0.5],[1,0.5]];portConstraint=eastwest;top=0;left=0;right=0;bottom=0;labelBackgroundColor=none;strokeColor=#006658;fontColor=#5C5C5C;" parent="JdINOegVUnqDGuHXTXD6-121" vertex="1">
          <mxGeometry y="270" width="180" height="30" as="geometry" />
        </mxCell>
        <mxCell id="JdINOegVUnqDGuHXTXD6-208" value="" style="shape=partialRectangle;connectable=0;fillColor=none;top=0;left=0;bottom=0;right=0;editable=1;overflow=hidden;labelBackgroundColor=none;strokeColor=#006658;fontColor=#5C5C5C;" parent="JdINOegVUnqDGuHXTXD6-207" vertex="1">
          <mxGeometry width="30" height="30" as="geometry">
            <mxRectangle width="30" height="30" as="alternateBounds" />
          </mxGeometry>
        </mxCell>
        <mxCell id="JdINOegVUnqDGuHXTXD6-209" value="birthdate" style="shape=partialRectangle;connectable=0;fillColor=none;top=0;left=0;bottom=0;right=0;align=left;spacingLeft=6;overflow=hidden;labelBackgroundColor=none;strokeColor=#006658;fontColor=#5C5C5C;" parent="JdINOegVUnqDGuHXTXD6-207" vertex="1">
          <mxGeometry x="30" width="150" height="30" as="geometry">
            <mxRectangle width="150" height="30" as="alternateBounds" />
          </mxGeometry>
        </mxCell>
        <mxCell id="JdINOegVUnqDGuHXTXD6-149" value="Countries" style="shape=table;startSize=30;container=1;collapsible=1;childLayout=tableLayout;fixedRows=1;rowLines=0;fontStyle=1;align=center;resizeLast=1;html=1;labelBackgroundColor=none;fillColor=#21C0A5;strokeColor=#006658;fontColor=#5C5C5C;" parent="1" vertex="1">
          <mxGeometry x="232" y="580" width="117.75" height="120" as="geometry" />
        </mxCell>
        <mxCell id="JdINOegVUnqDGuHXTXD6-150" value="" style="shape=tableRow;horizontal=0;startSize=0;swimlaneHead=0;swimlaneBody=0;fillColor=none;collapsible=0;dropTarget=0;points=[[0,0.5],[1,0.5]];portConstraint=eastwest;top=0;left=0;right=0;bottom=1;labelBackgroundColor=none;strokeColor=#006658;fontColor=#5C5C5C;" parent="JdINOegVUnqDGuHXTXD6-149" vertex="1">
          <mxGeometry y="30" width="117.75" height="30" as="geometry" />
        </mxCell>
        <mxCell id="JdINOegVUnqDGuHXTXD6-151" value="PK" style="shape=partialRectangle;connectable=0;fillColor=none;top=0;left=0;bottom=0;right=0;fontStyle=1;overflow=hidden;whiteSpace=wrap;html=1;labelBackgroundColor=none;strokeColor=#006658;fontColor=#5C5C5C;" parent="JdINOegVUnqDGuHXTXD6-150" vertex="1">
          <mxGeometry width="30" height="30" as="geometry">
            <mxRectangle width="30" height="30" as="alternateBounds" />
          </mxGeometry>
        </mxCell>
        <mxCell id="JdINOegVUnqDGuHXTXD6-152" value="ID" style="shape=partialRectangle;connectable=0;fillColor=none;top=0;left=0;bottom=0;right=0;align=left;spacingLeft=6;fontStyle=5;overflow=hidden;whiteSpace=wrap;html=1;labelBackgroundColor=none;strokeColor=#006658;fontColor=#5C5C5C;" parent="JdINOegVUnqDGuHXTXD6-150" vertex="1">
          <mxGeometry x="30" width="87.75" height="30" as="geometry">
            <mxRectangle width="87.75" height="30" as="alternateBounds" />
          </mxGeometry>
        </mxCell>
        <mxCell id="JdINOegVUnqDGuHXTXD6-153" value="" style="shape=tableRow;horizontal=0;startSize=0;swimlaneHead=0;swimlaneBody=0;fillColor=none;collapsible=0;dropTarget=0;points=[[0,0.5],[1,0.5]];portConstraint=eastwest;top=0;left=0;right=0;bottom=0;labelBackgroundColor=none;strokeColor=#006658;fontColor=#5C5C5C;" parent="JdINOegVUnqDGuHXTXD6-149" vertex="1">
          <mxGeometry y="60" width="117.75" height="30" as="geometry" />
        </mxCell>
        <mxCell id="JdINOegVUnqDGuHXTXD6-154" value="" style="shape=partialRectangle;connectable=0;fillColor=none;top=0;left=0;bottom=0;right=0;editable=1;overflow=hidden;whiteSpace=wrap;html=1;labelBackgroundColor=none;strokeColor=#006658;fontColor=#5C5C5C;" parent="JdINOegVUnqDGuHXTXD6-153" vertex="1">
          <mxGeometry width="30" height="30" as="geometry">
            <mxRectangle width="30" height="30" as="alternateBounds" />
          </mxGeometry>
        </mxCell>
        <mxCell id="JdINOegVUnqDGuHXTXD6-155" value="name" style="shape=partialRectangle;connectable=0;fillColor=none;top=0;left=0;bottom=0;right=0;align=left;spacingLeft=6;overflow=hidden;whiteSpace=wrap;html=1;labelBackgroundColor=none;strokeColor=#006658;fontColor=#5C5C5C;" parent="JdINOegVUnqDGuHXTXD6-153" vertex="1">
          <mxGeometry x="30" width="87.75" height="30" as="geometry">
            <mxRectangle width="87.75" height="30" as="alternateBounds" />
          </mxGeometry>
        </mxCell>
        <mxCell id="JdINOegVUnqDGuHXTXD6-156" value="" style="shape=tableRow;horizontal=0;startSize=0;swimlaneHead=0;swimlaneBody=0;fillColor=none;collapsible=0;dropTarget=0;points=[[0,0.5],[1,0.5]];portConstraint=eastwest;top=0;left=0;right=0;bottom=0;labelBackgroundColor=none;strokeColor=#006658;fontColor=#5C5C5C;" parent="JdINOegVUnqDGuHXTXD6-149" vertex="1">
          <mxGeometry y="90" width="117.75" height="30" as="geometry" />
        </mxCell>
        <mxCell id="JdINOegVUnqDGuHXTXD6-157" value="" style="shape=partialRectangle;connectable=0;fillColor=none;top=0;left=0;bottom=0;right=0;editable=1;overflow=hidden;whiteSpace=wrap;html=1;labelBackgroundColor=none;strokeColor=#006658;fontColor=#5C5C5C;" parent="JdINOegVUnqDGuHXTXD6-156" vertex="1">
          <mxGeometry width="30" height="30" as="geometry">
            <mxRectangle width="30" height="30" as="alternateBounds" />
          </mxGeometry>
        </mxCell>
        <mxCell id="JdINOegVUnqDGuHXTXD6-158" value="code" style="shape=partialRectangle;connectable=0;fillColor=none;top=0;left=0;bottom=0;right=0;align=left;spacingLeft=6;overflow=hidden;whiteSpace=wrap;html=1;labelBackgroundColor=none;strokeColor=#006658;fontColor=#5C5C5C;" parent="JdINOegVUnqDGuHXTXD6-156" vertex="1">
          <mxGeometry x="30" width="87.75" height="30" as="geometry">
            <mxRectangle width="87.75" height="30" as="alternateBounds" />
          </mxGeometry>
        </mxCell>
        <mxCell id="JdINOegVUnqDGuHXTXD6-170" value="" style="edgeStyle=entityRelationEdgeStyle;fontSize=12;html=1;endArrow=ERzeroToMany;startArrow=ERmandOne;rounded=0;exitX=0;exitY=0.5;exitDx=0;exitDy=0;labelBackgroundColor=none;strokeColor=#006658;fontColor=default;" parent="1" source="JdINOegVUnqDGuHXTXD6-150" target="JdINOegVUnqDGuHXTXD6-146" edge="1">
          <mxGeometry width="100" height="100" relative="1" as="geometry">
            <mxPoint x="89" y="565" as="sourcePoint" />
            <mxPoint x="189" y="465" as="targetPoint" />
          </mxGeometry>
        </mxCell>
        <mxCell id="JdINOegVUnqDGuHXTXD6-177" value="" style="edgeStyle=entityRelationEdgeStyle;fontSize=12;html=1;endArrow=ERzeroToMany;endFill=1;startArrow=ERzeroToMany;rounded=0;exitX=1;exitY=0.5;exitDx=0;exitDy=0;entryX=-0.002;entryY=0.786;entryDx=0;entryDy=0;labelBackgroundColor=none;strokeColor=#006658;fontColor=default;entryPerimeter=0;" parent="1" source="JdINOegVUnqDGuHXTXD6-150" target="JdINOegVUnqDGuHXTXD6-122" edge="1">
          <mxGeometry width="100" height="100" relative="1" as="geometry">
            <mxPoint x="329" y="605" as="sourcePoint" />
            <mxPoint x="429" y="505" as="targetPoint" />
          </mxGeometry>
        </mxCell>
        <mxCell id="JdINOegVUnqDGuHXTXD6-178" value="" style="edgeStyle=entityRelationEdgeStyle;fontSize=12;html=1;endArrow=ERmandOne;startArrow=ERmandOne;exitX=1;exitY=0.5;exitDx=0;exitDy=0;entryX=0;entryY=0.5;entryDx=0;entryDy=0;rounded=0;labelBackgroundColor=none;strokeColor=#006658;fontColor=default;" parent="1" source="JdINOegVUnqDGuHXTXD6-63" target="JdINOegVUnqDGuHXTXD6-122" edge="1">
          <mxGeometry width="100" height="100" relative="1" as="geometry">
            <mxPoint x="289" y="585" as="sourcePoint" />
            <mxPoint x="389" y="485" as="targetPoint" />
            <Array as="points">
              <mxPoint x="349" y="505" />
              <mxPoint x="359" y="485" />
              <mxPoint x="369" y="495" />
            </Array>
          </mxGeometry>
        </mxCell>
        <mxCell id="JdINOegVUnqDGuHXTXD6-179" value="" style="edgeStyle=entityRelationEdgeStyle;fontSize=12;html=1;endArrow=ERoneToMany;startArrow=ERmandOne;rounded=0;exitX=1;exitY=0.5;exitDx=0;exitDy=0;labelBackgroundColor=none;strokeColor=#006658;fontColor=default;" parent="1" source="JdINOegVUnqDGuHXTXD6-2" target="JdINOegVUnqDGuHXTXD6-57" edge="1">
          <mxGeometry width="100" height="100" relative="1" as="geometry">
            <mxPoint x="269" y="155" as="sourcePoint" />
            <mxPoint x="369" y="55" as="targetPoint" />
          </mxGeometry>
        </mxCell>
        <mxCell id="JdINOegVUnqDGuHXTXD6-180" value="" style="edgeStyle=entityRelationEdgeStyle;fontSize=12;html=1;endArrow=ERoneToMany;startArrow=ERmandOne;rounded=0;exitX=1;exitY=0.5;exitDx=0;exitDy=0;entryX=0;entryY=0.5;entryDx=0;entryDy=0;labelBackgroundColor=none;strokeColor=#006658;fontColor=default;" parent="1" source="JdINOegVUnqDGuHXTXD6-57" target="JdINOegVUnqDGuHXTXD6-181" edge="1">
          <mxGeometry width="100" height="100" relative="1" as="geometry">
            <mxPoint x="489" y="445" as="sourcePoint" />
            <mxPoint x="589" y="345" as="targetPoint" />
          </mxGeometry>
        </mxCell>
        <mxCell id="JdINOegVUnqDGuHXTXD6-184" value="" style="edgeStyle=entityRelationEdgeStyle;fontSize=12;html=1;endArrow=ERmandOne;startArrow=ERmandOne;rounded=0;entryX=0;entryY=0.5;entryDx=0;entryDy=0;exitX=1;exitY=0.5;exitDx=0;exitDy=0;labelBackgroundColor=none;strokeColor=#006658;fontColor=default;" parent="1" source="JdINOegVUnqDGuHXTXD6-76" target="JdINOegVUnqDGuHXTXD6-83" edge="1">
          <mxGeometry width="100" height="100" relative="1" as="geometry">
            <mxPoint x="609" y="110" as="sourcePoint" />
            <mxPoint x="619" y="295" as="targetPoint" />
          </mxGeometry>
        </mxCell>
        <mxCell id="JdINOegVUnqDGuHXTXD6-185" value="" style="edgeStyle=entityRelationEdgeStyle;fontSize=12;html=1;endArrow=ERoneToMany;startArrow=ERmandOne;rounded=0;exitX=1;exitY=0.5;exitDx=0;exitDy=0;entryX=0;entryY=0.5;entryDx=0;entryDy=0;labelBackgroundColor=none;strokeColor=#006658;fontColor=default;" parent="1" source="JdINOegVUnqDGuHXTXD6-70" target="JdINOegVUnqDGuHXTXD6-99" edge="1">
          <mxGeometry width="100" height="100" relative="1" as="geometry">
            <mxPoint x="429" y="395" as="sourcePoint" />
            <mxPoint x="529" y="295" as="targetPoint" />
          </mxGeometry>
        </mxCell>
        <mxCell id="JdINOegVUnqDGuHXTXD6-189" value="Cities" style="shape=table;startSize=30;container=1;collapsible=1;childLayout=tableLayout;fixedRows=1;rowLines=0;fontStyle=1;align=center;resizeLast=1;html=1;labelBackgroundColor=none;fillColor=#21C0A5;strokeColor=#006658;fontColor=#5C5C5C;" parent="1" vertex="1">
          <mxGeometry x="9" y="685" width="120" height="120" as="geometry" />
        </mxCell>
        <mxCell id="JdINOegVUnqDGuHXTXD6-190" value="" style="shape=tableRow;horizontal=0;startSize=0;swimlaneHead=0;swimlaneBody=0;fillColor=none;collapsible=0;dropTarget=0;points=[[0,0.5],[1,0.5]];portConstraint=eastwest;top=0;left=0;right=0;bottom=1;labelBackgroundColor=none;strokeColor=#006658;fontColor=#5C5C5C;" parent="JdINOegVUnqDGuHXTXD6-189" vertex="1">
          <mxGeometry y="30" width="120" height="30" as="geometry" />
        </mxCell>
        <mxCell id="JdINOegVUnqDGuHXTXD6-191" value="PK" style="shape=partialRectangle;connectable=0;fillColor=none;top=0;left=0;bottom=0;right=0;fontStyle=1;overflow=hidden;whiteSpace=wrap;html=1;labelBackgroundColor=none;strokeColor=#006658;fontColor=#5C5C5C;" parent="JdINOegVUnqDGuHXTXD6-190" vertex="1">
          <mxGeometry width="30" height="30" as="geometry">
            <mxRectangle width="30" height="30" as="alternateBounds" />
          </mxGeometry>
        </mxCell>
        <mxCell id="JdINOegVUnqDGuHXTXD6-192" value="ID" style="shape=partialRectangle;connectable=0;fillColor=none;top=0;left=0;bottom=0;right=0;align=left;spacingLeft=6;fontStyle=5;overflow=hidden;whiteSpace=wrap;html=1;labelBackgroundColor=none;strokeColor=#006658;fontColor=#5C5C5C;" parent="JdINOegVUnqDGuHXTXD6-190" vertex="1">
          <mxGeometry x="30" width="90" height="30" as="geometry">
            <mxRectangle width="90" height="30" as="alternateBounds" />
          </mxGeometry>
        </mxCell>
        <mxCell id="JdINOegVUnqDGuHXTXD6-193" value="" style="shape=tableRow;horizontal=0;startSize=0;swimlaneHead=0;swimlaneBody=0;fillColor=none;collapsible=0;dropTarget=0;points=[[0,0.5],[1,0.5]];portConstraint=eastwest;top=0;left=0;right=0;bottom=0;labelBackgroundColor=none;strokeColor=#006658;fontColor=#5C5C5C;" parent="JdINOegVUnqDGuHXTXD6-189" vertex="1">
          <mxGeometry y="60" width="120" height="30" as="geometry" />
        </mxCell>
        <mxCell id="JdINOegVUnqDGuHXTXD6-194" value="" style="shape=partialRectangle;connectable=0;fillColor=none;top=0;left=0;bottom=0;right=0;editable=1;overflow=hidden;whiteSpace=wrap;html=1;labelBackgroundColor=none;strokeColor=#006658;fontColor=#5C5C5C;" parent="JdINOegVUnqDGuHXTXD6-193" vertex="1">
          <mxGeometry width="30" height="30" as="geometry">
            <mxRectangle width="30" height="30" as="alternateBounds" />
          </mxGeometry>
        </mxCell>
        <mxCell id="JdINOegVUnqDGuHXTXD6-195" value="name" style="shape=partialRectangle;connectable=0;fillColor=none;top=0;left=0;bottom=0;right=0;align=left;spacingLeft=6;overflow=hidden;whiteSpace=wrap;html=1;labelBackgroundColor=none;strokeColor=#006658;fontColor=#5C5C5C;" parent="JdINOegVUnqDGuHXTXD6-193" vertex="1">
          <mxGeometry x="30" width="90" height="30" as="geometry">
            <mxRectangle width="90" height="30" as="alternateBounds" />
          </mxGeometry>
        </mxCell>
        <mxCell id="JdINOegVUnqDGuHXTXD6-196" value="" style="shape=tableRow;horizontal=0;startSize=0;swimlaneHead=0;swimlaneBody=0;fillColor=none;collapsible=0;dropTarget=0;points=[[0,0.5],[1,0.5]];portConstraint=eastwest;top=0;left=0;right=0;bottom=0;labelBackgroundColor=none;strokeColor=#006658;fontColor=#5C5C5C;" parent="JdINOegVUnqDGuHXTXD6-189" vertex="1">
          <mxGeometry y="90" width="120" height="30" as="geometry" />
        </mxCell>
        <mxCell id="JdINOegVUnqDGuHXTXD6-197" value="" style="shape=partialRectangle;connectable=0;fillColor=none;top=0;left=0;bottom=0;right=0;editable=1;overflow=hidden;whiteSpace=wrap;html=1;labelBackgroundColor=none;strokeColor=#006658;fontColor=#5C5C5C;" parent="JdINOegVUnqDGuHXTXD6-196" vertex="1">
          <mxGeometry width="30" height="30" as="geometry">
            <mxRectangle width="30" height="30" as="alternateBounds" />
          </mxGeometry>
        </mxCell>
        <mxCell id="JdINOegVUnqDGuHXTXD6-198" value="countryID" style="shape=partialRectangle;connectable=0;fillColor=none;top=0;left=0;bottom=0;right=0;align=left;spacingLeft=6;overflow=hidden;whiteSpace=wrap;html=1;labelBackgroundColor=none;strokeColor=#006658;fontColor=#5C5C5C;" parent="JdINOegVUnqDGuHXTXD6-196" vertex="1">
          <mxGeometry x="30" width="90" height="30" as="geometry">
            <mxRectangle width="90" height="30" as="alternateBounds" />
          </mxGeometry>
        </mxCell>
        <mxCell id="JdINOegVUnqDGuHXTXD6-202" value="" style="edgeStyle=entityRelationEdgeStyle;fontSize=12;html=1;endArrow=ERoneToMany;startArrow=ERmandOne;rounded=0;exitX=1;exitY=0.5;exitDx=0;exitDy=0;entryX=1;entryY=0.5;entryDx=0;entryDy=0;labelBackgroundColor=none;strokeColor=#006658;fontColor=default;" parent="JdINOegVUnqDGuHXTXD6-189" source="JdINOegVUnqDGuHXTXD6-196" target="JdINOegVUnqDGuHXTXD6-196" edge="1">
          <mxGeometry width="100" height="100" relative="1" as="geometry">
            <mxPoint x="60" y="-20" as="sourcePoint" />
            <mxPoint x="160" y="-120" as="targetPoint" />
          </mxGeometry>
        </mxCell>
        <mxCell id="JdINOegVUnqDGuHXTXD6-203" value="" style="edgeStyle=entityRelationEdgeStyle;fontSize=12;html=1;endArrow=ERoneToMany;startArrow=ERmandOne;rounded=0;entryX=1;entryY=0.5;entryDx=0;entryDy=0;exitX=0;exitY=0.5;exitDx=0;exitDy=0;labelBackgroundColor=none;strokeColor=#006658;fontColor=default;" parent="1" source="JdINOegVUnqDGuHXTXD6-150" target="JdINOegVUnqDGuHXTXD6-196" edge="1">
          <mxGeometry width="100" height="100" relative="1" as="geometry">
            <mxPoint x="69" y="965" as="sourcePoint" />
            <mxPoint x="169" y="865" as="targetPoint" />
          </mxGeometry>
        </mxCell>
        <mxCell id="JdINOegVUnqDGuHXTXD6-206" value="" style="edgeStyle=entityRelationEdgeStyle;fontSize=12;html=1;endArrow=ERzeroToMany;startArrow=ERmandOne;rounded=0;exitX=1;exitY=0.5;exitDx=0;exitDy=0;entryX=1;entryY=0.5;entryDx=0;entryDy=0;labelBackgroundColor=none;strokeColor=#006658;fontColor=default;" parent="1" source="JdINOegVUnqDGuHXTXD6-190" target="JdINOegVUnqDGuHXTXD6-166" edge="1">
          <mxGeometry width="100" height="100" relative="1" as="geometry">
            <mxPoint x="249" y="725" as="sourcePoint" />
            <mxPoint x="349" y="625" as="targetPoint" />
            <Array as="points">
              <mxPoint x="189" y="545" />
              <mxPoint x="189" y="535" />
            </Array>
          </mxGeometry>
        </mxCell>
        <mxCell id="JdINOegVUnqDGuHXTXD6-213" value="" style="edgeStyle=entityRelationEdgeStyle;fontSize=12;html=1;endArrow=ERoneToMany;startArrow=ERmandOne;rounded=0;exitX=1;exitY=0.5;exitDx=0;exitDy=0;entryX=0;entryY=0.5;entryDx=0;entryDy=0;labelBackgroundColor=none;strokeColor=#006658;fontColor=default;" parent="1" source="JdINOegVUnqDGuHXTXD6-57" target="JdINOegVUnqDGuHXTXD6-210" edge="1">
          <mxGeometry width="100" height="100" relative="1" as="geometry">
            <mxPoint x="239" y="585" as="sourcePoint" />
            <mxPoint x="339" y="485" as="targetPoint" />
          </mxGeometry>
        </mxCell>
        <mxCell id="JdINOegVUnqDGuHXTXD6-215" value="" style="edgeStyle=entityRelationEdgeStyle;fontSize=12;html=1;endArrow=ERoneToMany;startArrow=ERmandOne;rounded=0;fixDash=1;labelBackgroundColor=none;strokeColor=#006658;fontColor=default;" parent="1" target="JdINOegVUnqDGuHXTXD6-112" edge="1">
          <mxGeometry width="100" height="100" relative="1" as="geometry">
            <mxPoint x="779" y="325" as="sourcePoint" />
            <mxPoint x="589" y="505" as="targetPoint" />
            <Array as="points">
              <mxPoint x="619" y="305" />
              <mxPoint x="589" y="405" />
              <mxPoint x="579" y="405" />
            </Array>
          </mxGeometry>
        </mxCell>
        <mxCell id="JdINOegVUnqDGuHXTXD6-216" value="" style="edgeStyle=entityRelationEdgeStyle;fontSize=12;html=1;endArrow=ERmandOne;startArrow=ERmandOne;rounded=0;exitX=1;exitY=0.5;exitDx=0;exitDy=0;labelBackgroundColor=none;strokeColor=#006658;fontColor=default;" parent="1" source="JdINOegVUnqDGuHXTXD6-122" target="JdINOegVUnqDGuHXTXD6-115" edge="1">
          <mxGeometry width="100" height="100" relative="1" as="geometry">
            <mxPoint x="709" y="725" as="sourcePoint" />
            <mxPoint x="809" y="545" as="targetPoint" />
          </mxGeometry>
        </mxCell>
      </root>
    </mxGraphModel>
  </diagram>
</mxfile>
